# xmcd CD database file
#
# Track frame offsets:
#	150
#	19889
#	46343
#	62487
#	74703
#	85567
#	98479
#	121673
#	134223
#	143443
#
# Disc length: 2070 seconds
#
# Revision: 0
# Processed by: cddbd v1.5.1PL2 Copyright (c) Steve Scherf et al.
# Submitted via: CDex 1.51
#
DISCID=8208140a
DTITLE=井上知祥（琴祥流）・吉田峯男・伊藤真智子・大森輝美 - 大正琴名曲集4 日本のうたII
DYEAR=1900
DGENRE=Instrumental
TTITLE0=叱られて (弘田龍太郎)
TTITLE1=小諸なる古城のほとり (弘田龍太郎)
TTITLE2=美しき天然 (田中穂積)
TTITLE3=五木の子守歌 (日本民謡)
TTITLE4=我は海の子 (文部省唱歌)
TTITLE5=冬の夜 (文部省唱歌)
TTITLE6=砂山 (中山晋平)
TTITLE7=ああ、玉杯に花うけて (楠正一)
TTITLE8=紅萌ゆる岡の花 (沢村胡夷)
TTITLE9=人を恋うる歌 (不詳)
EXTD=
EXTT0=
EXTT1=
EXTT2=
EXTT3=
EXTT4=
EXTT5=
EXTT6=
EXTT7=
EXTT8=
EXTT9=
PLAYORDER=
